<?xml version="1.0" encoding="UTF-8"?>
<!DOCTYPE svg PUBLIC "-//W3C//DTD SVG 1.1//EN" "http://www.w3.org/Graphics/SVG/1.1/DTD/svg11.dtd">
<svg xmlns="http://www.w3.org/2000/svg" version="1.1" width="960px" height="960px" style="shape-rendering:geometricPrecision; text-rendering:geometricPrecision; image-rendering:optimizeQuality; fill-rule:evenodd; clip-rule:evenodd" xmlns:xlink="http://www.w3.org/1999/xlink">
<g><path style="opacity:1" fill="#7e7e7e" d="M 430.5,126.5 C 433.024,125.2 435.691,125.2 438.5,126.5C 438.376,127.107 438.043,127.44 437.5,127.5C 435.393,126.532 433.059,126.198 430.5,126.5 Z"/></g>
<g><path style="opacity:1" fill="#a4a4a4" d="M 518.5,126.5 C 515.941,126.198 513.607,126.532 511.5,127.5C 510.711,127.217 510.044,126.717 509.5,126C 512.696,125.195 515.696,125.362 518.5,126.5 Z"/></g>
<g><path style="opacity:1" fill="#151515" d="M 430.5,126.5 C 433.059,126.198 435.393,126.532 437.5,127.5C 430.369,135.132 423.036,142.632 415.5,150C 393.712,151.965 372.045,154.798 350.5,158.5C 347.171,158.215 344.171,158.882 341.5,160.5C 332.189,162.629 322.855,164.629 313.5,166.5C 312.209,166.737 311.209,166.404 310.5,165.5C 324.102,157.536 338.435,150.869 353.5,145.5C 356.716,145.655 359.383,144.655 361.5,142.5C 363.701,141.434 366.035,140.767 368.5,140.5C 373.165,139.943 377.498,138.61 381.5,136.5C 384.152,136.59 386.485,135.924 388.5,134.5C 402.117,130.444 416.117,127.778 430.5,126.5 Z"/></g>
<g><path style="opacity:1" fill="#040404" d="M 518.5,126.5 C 527.307,126.996 535.974,128.329 544.5,130.5C 548.126,132.498 552.126,133.498 556.5,133.5C 558.216,133.629 559.883,133.962 561.5,134.5C 563.102,136.074 565.102,136.741 567.5,136.5C 591.261,142.753 613.927,151.753 635.5,163.5C 635.821,165.048 636.821,165.715 638.5,165.5C 642.3,167.234 645.966,169.234 649.5,171.5C 649.821,173.048 650.821,173.715 652.5,173.5C 655.167,175.167 657.833,176.833 660.5,178.5C 661.035,180.446 662.368,181.446 664.5,181.5C 678.296,190.065 690.963,200.065 702.5,211.5C 703.262,213.262 704.596,214.262 706.5,214.5C 717.904,224.569 728.238,235.569 737.5,247.5C 737.427,249.027 738.094,250.027 739.5,250.5C 746.462,257.746 752.462,265.746 757.5,274.5C 757.427,276.027 758.094,277.027 759.5,277.5C 761.664,279.822 763.331,282.489 764.5,285.5C 764.427,287.027 765.094,288.027 766.5,288.5C 767.338,288.842 767.672,289.508 767.5,290.5C 767.427,292.027 768.094,293.027 769.5,293.5C 770.674,294.514 771.34,295.847 771.5,297.5C 771.427,299.027 772.094,300.027 773.5,300.5C 782.106,315.049 789.106,330.383 794.5,346.5C 794.12,348.698 794.787,350.365 796.5,351.5C 798.771,356.98 800.437,362.647 801.5,368.5C 801.926,372.427 802.926,376.093 804.5,379.5C 804.41,382.152 805.076,384.485 806.5,386.5C 809.633,397.512 811.633,408.845 812.5,420.5C 812.663,422.857 812.497,425.19 812,427.5C 811.617,426.944 811.117,426.611 810.5,426.5C 786.963,403.629 763.629,380.296 740.5,356.5C 739.833,355.167 738.833,354.167 737.5,353.5C 737.167,353.5 736.833,353.5 736.5,353.5C 736.144,351.81 735.144,350.81 733.5,350.5C 683.51,298.877 632.843,247.877 581.5,197.5C 557.833,174.5 534.5,151.167 511.5,127.5C 513.607,126.532 515.941,126.198 518.5,126.5 Z"/></g>
<g><path style="opacity:1" fill="#818281" d="M 544.5,130.5 C 548.736,131.008 552.736,132.008 556.5,133.5C 552.126,133.498 548.126,132.498 544.5,130.5 Z"/></g>
<g><path style="opacity:1" fill="#6c6c6c" d="M 388.5,134.5 C 386.485,135.924 384.152,136.59 381.5,136.5C 383.515,135.076 385.848,134.41 388.5,134.5 Z"/></g>
<g><path style="opacity:1" fill="#90908f" d="M 561.5,134.5 C 563.786,134.595 565.786,135.262 567.5,136.5C 565.102,136.741 563.102,136.074 561.5,134.5 Z"/></g>
<g><path style="opacity:1" fill="#5d5e5d" d="M 381.5,136.5 C 377.498,138.61 373.165,139.943 368.5,140.5C 372.491,138.394 376.824,137.061 381.5,136.5 Z"/></g>
<g><path style="opacity:1" fill="#5a5b5a" d="M 361.5,142.5 C 359.383,144.655 356.716,145.655 353.5,145.5C 355.936,144.129 358.603,143.129 361.5,142.5 Z"/></g>
<g><path style="opacity:1" fill="#656665" d="M 436.5,160.5 C 424.175,159.906 411.842,159.573 399.5,159.5C 402.228,158.795 405.061,158.128 408,157.5C 411.333,158.833 414.667,158.833 418,157.5C 421.009,158.913 424.009,159.246 427,158.5C 430.35,158.946 433.517,159.612 436.5,160.5 Z"/></g>
<g><path style="opacity:1" fill="#a6a7a6" d="M 350.5,158.5 C 347.727,159.657 344.727,160.324 341.5,160.5C 344.171,158.882 347.171,158.215 350.5,158.5 Z"/></g>
<g><path style="opacity:1" fill="#010101" d="M 399.5,159.5 C 411.842,159.573 424.175,159.906 436.5,160.5C 463.817,163.334 490.484,170.334 516.5,181.5C 549.051,195.11 577.051,215.11 600.5,241.5C 617.135,263.737 625.801,288.737 626.5,316.5C 627.349,332.171 625.683,347.504 621.5,362.5C 617.281,372.606 612.281,382.273 606.5,391.5C 599.853,400.477 592.52,408.811 584.5,416.5C 571.489,426.84 557.155,434.84 541.5,440.5C 529.38,443.851 517.047,446.185 504.5,447.5C 507.653,438.544 511.486,429.878 516,421.5C 521.9,406.604 526.233,391.271 529,375.5C 529.824,365.788 529.491,356.121 528,346.5C 523.34,334.507 514.84,326.673 502.5,323C 494.543,321.514 486.543,320.347 478.5,319.5C 470.69,314.748 463.356,309.248 456.5,303C 445.86,292.548 436.526,281.048 428.5,268.5C 427.675,267.614 426.675,267.281 425.5,267.5C 420.198,284.049 415.531,300.716 411.5,317.5C 404.468,317.64 397.802,318.974 391.5,321.5C 376.858,325.602 362.858,331.269 349.5,338.5C 340.746,341.381 332.413,345.047 324.5,349.5C 318.009,351.213 312.009,353.88 306.5,357.5C 297.256,361.13 288.256,365.13 279.5,369.5C 270.494,373.006 261.828,377.006 253.5,381.5C 251.383,382.014 249.216,382.347 247,382.5C 234.102,380.824 221.269,378.824 208.5,376.5C 208.167,376.5 207.833,376.5 207.5,376.5C 205.898,374.926 203.898,374.259 201.5,374.5C 199.162,372.96 196.495,372.294 193.5,372.5C 182.474,370.051 172.141,366.051 162.5,360.5C 161.486,359.326 160.153,358.66 158.5,358.5C 155.669,357.921 153.336,356.588 151.5,354.5C 151.027,353.094 150.027,352.427 148.5,352.5C 134.724,344.547 125.558,332.88 121,317.5C 120.192,313.973 120.359,310.64 121.5,307.5C 122.768,305.095 123.435,302.428 123.5,299.5C 131.957,279.366 144.957,262.699 162.5,249.5C 164.749,248.92 166.415,247.587 167.5,245.5C 179.944,234.439 193.611,225.106 208.5,217.5C 210.027,217.573 211.027,216.906 211.5,215.5C 229.836,204.717 249.169,196.05 269.5,189.5C 271.786,189.405 273.786,188.738 275.5,187.5C 278.084,185.528 281.084,184.528 284.5,184.5C 287.542,184.267 290.208,183.267 292.5,181.5C 292.833,181.5 293.167,181.5 293.5,181.5C 295.898,181.741 297.898,181.074 299.5,179.5C 300.919,178.549 302.585,178.216 304.5,178.5C 306.898,178.741 308.898,178.074 310.5,176.5C 311.568,175.566 312.901,175.232 314.5,175.5C 317.428,175.435 320.095,174.768 322.5,173.5C 325.495,173.706 328.162,173.04 330.5,171.5C 331.919,170.549 333.585,170.216 335.5,170.5C 338.781,170.58 341.781,169.913 344.5,168.5C 346.265,167.539 348.265,167.205 350.5,167.5C 353.495,167.706 356.162,167.04 358.5,165.5C 372.485,162.437 386.152,160.437 399.5,159.5 Z"/></g>
<g><path style="opacity:1" fill="#737373" d="M 635.5,163.5 C 636.71,163.932 637.71,164.599 638.5,165.5C 636.821,165.715 635.821,165.048 635.5,163.5 Z"/></g>
<g><path style="opacity:1" fill="#737373" d="M 310.5,165.5 C 311.209,166.404 312.209,166.737 313.5,166.5C 311.965,167.788 310.299,167.788 308.5,166.5C 308.957,165.702 309.624,165.369 310.5,165.5 Z"/></g>
<g><path style="opacity:1" fill="#676767" d="M 358.5,165.5 C 356.162,167.04 353.495,167.706 350.5,167.5C 352.838,165.96 355.505,165.294 358.5,165.5 Z"/></g>
<g><path style="opacity:1" fill="#636363" d="M 344.5,168.5 C 341.781,169.913 338.781,170.58 335.5,170.5C 338.219,169.087 341.219,168.42 344.5,168.5 Z"/></g>
<g><path style="opacity:1" fill="#666666" d="M 330.5,171.5 C 328.162,173.04 325.495,173.706 322.5,173.5C 324.905,172.232 327.572,171.565 330.5,171.5 Z"/></g>
<g><path style="opacity:1" fill="#7b7b7b" d="M 649.5,171.5 C 650.71,171.932 651.71,172.599 652.5,173.5C 650.821,173.715 649.821,173.048 649.5,171.5 Z"/></g>
<g><path style="opacity:1" fill="#717171" d="M 322.5,173.5 C 320.095,174.768 317.428,175.435 314.5,175.5C 316.838,173.96 319.505,173.294 322.5,173.5 Z"/></g>
<g><path style="opacity:1" fill="#565656" d="M 310.5,176.5 C 308.898,178.074 306.898,178.741 304.5,178.5C 306.102,176.926 308.102,176.259 310.5,176.5 Z"/></g>
<g><path style="opacity:1" fill="#6c6d6c" d="M 660.5,178.5 C 662.23,179.026 663.564,180.026 664.5,181.5C 662.368,181.446 661.035,180.446 660.5,178.5 Z"/></g>
<g><path style="opacity:1" fill="#6d6d6d" d="M 299.5,179.5 C 297.898,181.074 295.898,181.741 293.5,181.5C 295.214,180.262 297.214,179.595 299.5,179.5 Z"/></g>
<g><path style="opacity:1" fill="#636962" d="M 292.5,181.5 C 290.208,183.267 287.542,184.267 284.5,184.5C 286.792,182.733 289.458,181.733 292.5,181.5 Z"/></g>
<g><path style="opacity:1" fill="#03a7a5" d="M 516.5,181.5 C 538.488,184.664 559.821,190.33 580.5,198.5C 581.107,198.376 581.44,198.043 581.5,197.5C 632.843,247.877 683.51,298.877 733.5,350.5C 715.2,333.71 697.033,316.043 679,297.5C 679.957,301.058 680.957,304.725 682,308.5C 682.465,309.931 683.299,311.097 684.5,312C 684.043,312.414 683.709,312.914 683.5,313.5C 686.928,323.076 689.594,332.576 691.5,342C 690.89,344.466 691.224,346.966 692.5,349.5C 692.52,355.637 692.52,361.803 692.5,368C 693.238,371.616 693.904,375.282 694.5,379C 694.241,380.261 693.574,381.261 692.5,382C 693.167,385.333 693.833,388.667 694.5,392C 693.426,392.739 692.759,393.739 692.5,395C 693.421,401.872 693.421,408.872 692.5,416C 689.707,423.538 688.207,431.371 688,439.5C 686.046,441.645 684.879,443.812 684.5,446C 684.957,446.414 685.291,446.914 685.5,447.5C 676.781,475.165 663.614,500.499 646,523.5C 638.536,531.634 631.036,539.801 623.5,548C 622.552,548.483 621.552,548.649 620.5,548.5C 620.67,549.822 620.337,550.989 619.5,552C 612.389,556.54 605.722,561.54 599.5,567C 583.326,577.949 565.993,586.616 547.5,593C 546.915,594.302 546.249,595.469 545.5,596.5C 542.765,585.629 539.431,574.962 535.5,564.5C 545.449,561.016 555.116,556.849 564.5,552C 573.536,546.821 582.202,541.154 590.5,535C 591.448,534.517 592.448,534.351 593.5,534.5C 593.5,533.5 593.5,532.5 593.5,531.5C 594.978,531.762 596.311,531.429 597.5,530.5C 656.161,481.021 678.327,419.021 664,344.5C 654.022,302.852 633.522,267.519 602.5,238.5C 601.575,239.357 600.908,240.357 600.5,241.5C 577.051,215.11 549.051,195.11 516.5,181.5 Z"/></g>
<g><path style="opacity:1" fill="#6d716c" d="M 275.5,187.5 C 273.786,188.738 271.786,189.405 269.5,189.5C 271.102,187.926 273.102,187.259 275.5,187.5 Z"/></g>
<g><path style="opacity:0.133" fill="#7a8279" d="M 702.5,211.5 C 704.404,211.738 705.738,212.738 706.5,214.5C 704.596,214.262 703.262,213.262 702.5,211.5 Z"/></g>
<g><path style="opacity:1" fill="#727272" d="M 211.5,215.5 C 211.027,216.906 210.027,217.573 208.5,217.5C 208.973,216.094 209.973,215.427 211.5,215.5 Z"/></g>
<g><path style="opacity:1" fill="#00acaa" d="M 535.5,564.5 C 532.493,558.465 529.493,552.465 526.5,546.5C 527.774,545.811 527.774,544.977 526.5,544C 596.238,521.577 635.905,473.91 645.5,401C 648.116,370.884 643.949,341.717 633,313.5C 627.53,300.28 625.363,301.28 626.5,316.5C 625.801,288.737 617.135,263.737 600.5,241.5C 600.908,240.357 601.575,239.357 602.5,238.5C 633.522,267.519 654.022,302.852 664,344.5C 678.327,419.021 656.161,481.021 597.5,530.5C 596.311,531.429 594.978,531.762 593.5,531.5C 593.5,532.5 593.5,533.5 593.5,534.5C 592.448,534.351 591.448,534.517 590.5,535C 582.202,541.154 573.536,546.821 564.5,552C 555.116,556.849 545.449,561.016 535.5,564.5 Z"/></g>
<g><path style="opacity:1" fill="#505050" d="M 167.5,245.5 C 166.415,247.587 164.749,248.92 162.5,249.5C 163.585,247.413 165.251,246.08 167.5,245.5 Z"/></g>
<g><path style="opacity:1" fill="#727472" d="M 737.5,247.5 C 738.906,247.973 739.573,248.973 739.5,250.5C 738.094,250.027 737.427,249.027 737.5,247.5 Z"/></g>
<g><path style="opacity:1" fill="#fefefe" d="M 478.5,319.5 C 483.59,323.557 488.923,327.39 494.5,331C 500,335.167 504.833,340 509,345.5C 514.239,358.9 514.905,372.567 511,386.5C 502.49,412.201 492.824,437.535 482,462.5C 476.928,467.127 471.428,467.627 465.5,464C 449.974,449.139 434.474,434.306 419,419.5C 403.544,400.84 398.544,379.507 404,355.5C 405.732,345.473 407.566,335.473 409.5,325.5C 411.04,323.162 411.706,320.495 411.5,317.5C 415.531,300.716 420.198,284.049 425.5,267.5C 426.675,267.281 427.675,267.614 428.5,268.5C 436.526,281.048 445.86,292.548 456.5,303C 463.356,309.248 470.69,314.748 478.5,319.5 Z"/></g>
<g><path style="opacity:1" fill="#6e746d" d="M 757.5,274.5 C 758.906,274.973 759.573,275.973 759.5,277.5C 758.094,277.027 757.427,276.027 757.5,274.5 Z"/></g>
<g><path style="opacity:1" fill="#70766e" d="M 764.5,285.5 C 765.906,285.973 766.573,286.973 766.5,288.5C 765.094,288.027 764.427,287.027 764.5,285.5 Z"/></g>
<g><path style="opacity:1" fill="#868886" d="M 767.5,290.5 C 768.906,290.973 769.573,291.973 769.5,293.5C 768.094,293.027 767.427,292.027 767.5,290.5 Z"/></g>
<g><path style="opacity:1" fill="#838583" d="M 771.5,297.5 C 772.906,297.973 773.573,298.973 773.5,300.5C 772.094,300.027 771.427,299.027 771.5,297.5 Z"/></g>
<g><path style="opacity:1" fill="#01b3b1" d="M 526.5,546.5 C 522.253,540.344 518.253,534.01 514.5,527.5C 514.5,526.5 514.5,525.5 514.5,524.5C 578.51,505.977 614.677,463.977 623,398.5C 623.667,386.167 623.667,373.833 623,361.5C 622.617,362.056 622.117,362.389 621.5,362.5C 625.683,347.504 627.349,332.171 626.5,316.5C 625.363,301.28 627.53,300.28 633,313.5C 643.949,341.717 648.116,370.884 645.5,401C 635.905,473.91 596.238,521.577 526.5,544C 527.774,544.977 527.774,545.811 526.5,546.5 Z"/></g>
<g><path style="opacity:1" fill="#757575" d="M 123.5,299.5 C 123.435,302.428 122.768,305.095 121.5,307.5C 121.294,304.505 121.96,301.838 123.5,299.5 Z"/></g>
<g><path style="opacity:1" fill="#01a19f" d="M 733.5,350.5 C 735.144,350.81 736.144,351.81 736.5,353.5C 736.328,354.492 736.662,355.158 737.5,355.5C 740.698,365.094 743.698,374.761 746.5,384.5C 744.689,382.615 743.522,380.281 743,377.5C 742.921,381.872 743.421,386.206 744.5,390.5C 743.888,393.043 743.221,395.876 742.5,399C 742.559,400.436 742.892,401.769 743.5,403C 743.115,406.59 742.115,409.923 740.5,413C 741.624,413.839 742.291,415.006 742.5,416.5C 741.388,421.616 740.221,426.95 739,432.5C 738.5,433 738,433.5 737.5,434C 737.633,436.734 737.633,439.401 737.5,442C 735.996,443.337 734.996,445.004 734.5,447C 735.051,448.398 735.384,449.732 735.5,451C 732.447,452.581 731.78,454.914 733.5,458C 730.679,460.14 729.679,462.807 730.5,466C 729.165,467.674 727.831,469.341 726.5,471C 726.957,471.414 727.291,471.914 727.5,472.5C 725.411,476.976 723.244,481.31 721,485.5C 720.08,488.101 719.413,490.768 719,493.5C 715.283,499.297 711.783,505.13 708.5,511C 708.735,511.873 709.069,512.707 709.5,513.5C 709.154,514.696 708.654,514.696 708,513.5C 707.426,515.492 706.259,516.992 704.5,518C 703.147,524.133 699.814,529.467 694.5,534C 695.833,535.84 695.666,536.34 694,535.5C 692.046,539.282 689.546,542.615 686.5,545.5C 686.846,546.696 687.346,546.696 688,545.5C 688.483,546.448 688.649,547.448 688.5,548.5C 687.127,548.343 685.793,548.51 684.5,549C 684.957,549.414 685.291,549.914 685.5,550.5C 681.566,551.289 679.233,553.622 678.5,557.5C 672.149,563.82 666.315,570.487 661,577.5C 660.667,577.167 660.333,576.833 660,576.5C 657.712,579.159 655.378,581.826 653,584.5C 652.667,584.167 652.333,583.833 652,583.5C 649.577,586.249 647.577,589.249 646,592.5C 645.692,591.692 645.192,591.025 644.5,590.5C 640.509,592.992 637.175,596.158 634.5,600C 633.551,600.617 632.718,600.451 632,599.5C 629.578,602.358 626.745,604.691 623.5,606.5C 622.614,607.325 622.281,608.325 622.5,609.5C 620.799,609.966 619.299,609.966 618,609.5C 615.03,612.173 611.863,614.673 608.5,617C 596.344,622.923 584.511,628.757 573,634.5C 572.586,634.043 572.086,633.709 571.5,633.5C 568.828,634.501 566.161,635.501 563.5,636.5C 564.999,637.904 564.666,638.57 562.5,638.5C 561.558,638.392 560.725,638.059 560,637.5C 558.8,639.412 557.133,640.745 555,641.5C 554.667,643.5 554.333,645.5 554,647.5C 553.79,645.942 553.29,644.609 552.5,643.5C 550.965,627.7 548.632,612.033 545.5,596.5C 546.249,595.469 546.915,594.302 547.5,593C 565.993,586.616 583.326,577.949 599.5,567C 605.722,561.54 612.389,556.54 619.5,552C 620.337,550.989 620.67,549.822 620.5,548.5C 621.552,548.649 622.552,548.483 623.5,548C 631.036,539.801 638.536,531.634 646,523.5C 663.614,500.499 676.781,475.165 685.5,447.5C 685.291,446.914 684.957,446.414 684.5,446C 684.879,443.812 686.046,441.645 688,439.5C 688.207,431.371 689.707,423.538 692.5,416C 693.421,408.872 693.421,401.872 692.5,395C 692.759,393.739 693.426,392.739 694.5,392C 693.833,388.667 693.167,385.333 692.5,382C 693.574,381.261 694.241,380.261 694.5,379C 693.904,375.282 693.238,371.616 692.5,368C 692.52,361.803 692.52,355.637 692.5,349.5C 691.224,346.966 690.89,344.466 691.5,342C 689.594,332.576 686.928,323.076 683.5,313.5C 683.709,312.914 684.043,312.414 684.5,312C 683.299,311.097 682.465,309.931 682,308.5C 680.957,304.725 679.957,301.058 679,297.5C 697.033,316.043 715.2,333.71 733.5,350.5 Z"/></g>
<g><path style="opacity:1" fill="#03c5c3" d="M 411.5,317.5 C 411.706,320.495 411.04,323.162 409.5,325.5C 408.778,325.918 408.278,326.584 408,327.5C 407.667,326.167 407.333,324.833 407,323.5C 386.647,345.707 379.98,371.707 387,401.5C 394.612,435.527 414.778,458.361 447.5,470C 455.131,471.655 462.798,472.989 470.5,474C 471.044,474.717 471.711,475.217 472.5,475.5C 468.894,480.289 466.227,485.623 464.5,491.5C 414.048,483.342 382.548,454.675 370,405.5C 363.179,379.826 366.512,355.16 380,331.5C 381.5,329.167 383,326.833 384.5,324.5C 387,323.641 389.333,322.641 391.5,321.5C 397.802,318.974 404.468,317.64 411.5,317.5 Z"/></g>
<g><path style="opacity:1" fill="#0cc9c7" d="M 478.5,319.5 C 486.543,320.347 494.543,321.514 502.5,323C 514.84,326.673 523.34,334.507 528,346.5C 529.491,356.121 529.824,365.788 529,375.5C 526.233,391.271 521.9,406.604 516,421.5C 511.486,429.878 507.653,438.544 504.5,447.5C 517.047,446.185 529.38,443.851 541.5,440.5C 543.225,440.843 543.725,441.843 543,443.5C 525.194,461.15 503.694,471.484 478.5,474.5C 476.435,474.517 474.435,474.85 472.5,475.5C 471.711,475.217 471.044,474.717 470.5,474C 462.798,472.989 455.131,471.655 447.5,470C 414.778,458.361 394.612,435.527 387,401.5C 379.98,371.707 386.647,345.707 407,323.5C 407.333,324.833 407.667,326.167 408,327.5C 408.278,326.584 408.778,325.918 409.5,325.5C 407.566,335.473 405.732,345.473 404,355.5C 398.544,379.507 403.544,400.84 419,419.5C 434.474,434.306 449.974,449.139 465.5,464C 471.428,467.627 476.928,467.127 482,462.5C 492.824,437.535 502.49,412.201 511,386.5C 514.905,372.567 514.239,358.9 509,345.5C 504.833,340 500,335.167 494.5,331C 488.923,327.39 483.59,323.557 478.5,319.5 Z"/></g>
<g><path style="opacity:1" fill="#02bfbd" d="M 391.5,321.5 C 389.333,322.641 387,323.641 384.5,324.5C 383,326.833 381.5,329.167 380,331.5C 366.512,355.16 363.179,379.826 370,405.5C 382.548,454.675 414.048,483.342 464.5,491.5C 463.282,497.57 461.282,503.237 458.5,508.5C 458.631,507.761 458.464,507.094 458,506.5C 457.804,508.286 456.971,509.619 455.5,510.5C 404.22,501.051 370.054,471.718 353,422.5C 344.796,398.557 343.463,374.223 349,349.5C 349.912,346.414 351.079,343.414 352.5,340.5C 351.398,339.824 350.398,339.158 349.5,338.5C 362.858,331.269 376.858,325.602 391.5,321.5 Z"/></g>
<g><path style="opacity:1" fill="#01b9b7" d="M 349.5,338.5 C 350.398,339.158 351.398,339.824 352.5,340.5C 351.079,343.414 349.912,346.414 349,349.5C 343.463,374.223 344.796,398.557 353,422.5C 370.054,471.718 404.22,501.051 455.5,510.5C 456.971,509.619 457.804,508.286 458,506.5C 458.464,507.094 458.631,507.761 458.5,508.5C 458.595,511.697 457.928,514.697 456.5,517.5C 455.414,517.62 454.747,518.287 454.5,519.5C 453.396,524.187 452.23,528.853 451,533.5C 450.275,534.059 449.442,534.392 448.5,534.5C 388.195,521.482 347.362,485.816 326,427.5C 319.447,401.84 318.947,375.84 324.5,349.5C 332.413,345.047 340.746,341.381 349.5,338.5 Z"/></g>
<g><path style="opacity:1" fill="#707170" d="M 794.5,346.5 C 795.537,347.93 796.204,349.597 796.5,351.5C 794.787,350.365 794.12,348.698 794.5,346.5 Z"/></g>
<g><path style="opacity:1" fill="#01b2b0" d="M 324.5,349.5 C 318.947,375.84 319.447,401.84 326,427.5C 347.362,485.816 388.195,521.482 448.5,534.5C 449.442,534.392 450.275,534.059 451,533.5C 452.23,528.853 453.396,524.187 454.5,519.5C 454.747,518.287 455.414,517.62 456.5,517.5C 454.565,528.915 451.565,539.915 447.5,550.5C 412.832,545.166 383.166,530.333 358.5,506C 357.552,505.517 356.552,505.351 355.5,505.5C 355.649,504.448 355.483,503.448 355,502.5C 351.306,499.473 347.973,496.14 345,492.5C 325.898,467.18 313.231,438.847 307,407.5C 306.754,404.11 306.254,400.777 305.5,397.5C 306.223,395.836 305.89,394.169 304.5,392.5C 303.961,381.088 304.628,369.422 306.5,357.5C 312.009,353.88 318.009,351.213 324.5,349.5 Z"/></g>
<g><path style="opacity:1" fill="#757575" d="M 148.5,352.5 C 150.027,352.427 151.027,353.094 151.5,354.5C 149.973,354.573 148.973,353.906 148.5,352.5 Z"/></g>
<g><path style="opacity:0.133" fill="#6a7b6f" d="M 737.5,353.5 C 738.833,354.167 739.833,355.167 740.5,356.5C 739.391,356.443 738.391,356.11 737.5,355.5C 737.5,354.833 737.5,354.167 737.5,353.5 Z"/></g>
<g><path style="opacity:0.133" fill="#628364" d="M 740.5,359.5 C 739.833,358.167 739.833,358.167 740.5,359.5 Z"/></g>
<g><path style="opacity:1" fill="#818381" d="M 158.5,358.5 C 160.153,358.66 161.486,359.326 162.5,360.5C 160.62,360.771 159.287,360.104 158.5,358.5 Z"/></g>
<g><path style="opacity:0.133" fill="#628364" d="M 740.5,359.5 C 741.525,359.897 741.692,360.563 741,361.5C 740.536,360.906 740.369,360.239 740.5,359.5 Z"/></g>
<g><path style="opacity:0.133" fill="#628364" d="M 741.5,362.5 C 742.833,363.167 742.833,363.167 741.5,362.5 Z"/></g>
<g><path style="opacity:1" fill="#b9b9b9" d="M 150.5,364.5 C 149.391,364.557 148.391,364.89 147.5,365.5C 148.053,363.448 149.053,363.115 150.5,364.5 Z"/></g>
<g><path style="opacity:1" fill="#00adab" d="M 306.5,357.5 C 304.628,369.422 303.961,381.088 304.5,392.5C 305.89,394.169 306.223,395.836 305.5,397.5C 306.254,400.777 306.754,404.11 307,407.5C 313.231,438.847 325.898,467.18 345,492.5C 347.973,496.14 351.306,499.473 355,502.5C 355.483,503.448 355.649,504.448 355.5,505.5C 356.552,505.351 357.552,505.517 358.5,506C 383.166,530.333 412.832,545.166 447.5,550.5C 446.507,556.487 445.507,562.487 444.5,568.5C 443.674,573.316 443.174,578.316 443,583.5C 442.501,579.514 442.334,575.514 442.5,571.5C 434.551,571.066 426.884,569.566 419.5,567C 392.325,557.663 367.659,543.83 345.5,525.5C 342.23,522.267 339.23,518.767 336.5,515C 335.552,514.517 334.552,514.351 333.5,514.5C 332.052,510.036 329.385,506.37 325.5,503.5C 296.318,463.789 282.651,419.956 284.5,372C 283.09,370.628 281.423,369.795 279.5,369.5C 288.256,365.13 297.256,361.13 306.5,357.5 Z"/></g>
<g><path style="opacity:1" fill="#01b9b7" d="M 514.5,527.5 C 511.015,523.21 508.015,518.543 505.5,513.5C 509.986,514.773 514.32,514.273 518.5,512C 551.36,498.795 577.193,477.295 596,447.5C 605.313,429.184 609.813,410.184 609.5,390.5C 608.583,391.127 607.583,391.461 606.5,391.5C 612.281,382.273 617.281,372.606 621.5,362.5C 622.117,362.389 622.617,362.056 623,361.5C 623.667,373.833 623.667,386.167 623,398.5C 614.677,463.977 578.51,505.977 514.5,524.5C 514.5,525.5 514.5,526.5 514.5,527.5 Z"/></g>
<g><path style="opacity:1" fill="#121212" d="M 150.5,364.5 C 162.292,369.73 174.292,374.397 186.5,378.5C 170.095,395.906 153.095,412.573 135.5,428.5C 136.244,424.881 136.577,421.215 136.5,417.5C 137.106,407.853 138.773,398.52 141.5,389.5C 143.102,385.761 144.102,381.761 144.5,377.5C 144.232,375.901 144.566,374.568 145.5,373.5C 146.924,371.485 147.59,369.152 147.5,366.5C 147.5,366.167 147.5,365.833 147.5,365.5C 148.391,364.89 149.391,364.557 150.5,364.5 Z"/></g>
<g><path style="opacity:0.133" fill="#69886c" d="M 741.5,365.5 C 742.497,364.287 743.497,364.454 744.5,366C 743.423,366.47 742.423,366.303 741.5,365.5 Z"/></g>
<g><path style="opacity:1" fill="#7a7a7a" d="M 147.5,366.5 C 147.59,369.152 146.924,371.485 145.5,373.5C 145.41,370.848 146.076,368.515 147.5,366.5 Z"/></g>
<g><path style="opacity:0.133" fill="#628364" d="M 743.5,369.5 C 744.833,370.167 744.833,370.167 743.5,369.5 Z"/></g>
<g><path style="opacity:1" fill="#6b6b6b" d="M 801.5,368.5 C 803.483,371.799 804.483,375.466 804.5,379.5C 802.926,376.093 801.926,372.427 801.5,368.5 Z"/></g>
<g><path style="opacity:1" fill="#808080" d="M 193.5,372.5 C 196.495,372.294 199.162,372.96 201.5,374.5C 198.505,374.706 195.838,374.04 193.5,372.5 Z"/></g>
<g><path style="opacity:1" fill="#00a6a4" d="M 279.5,369.5 C 281.423,369.795 283.09,370.628 284.5,372C 282.651,419.956 296.318,463.789 325.5,503.5C 329.385,506.37 332.052,510.036 333.5,514.5C 334.552,514.351 335.552,514.517 336.5,515C 339.23,518.767 342.23,522.267 345.5,525.5C 367.659,543.83 392.325,557.663 419.5,567C 426.884,569.566 434.551,571.066 442.5,571.5C 442.334,575.514 442.501,579.514 443,583.5C 443.174,578.316 443.674,573.316 444.5,568.5C 444.334,575.175 444.5,581.842 445,588.5C 446.815,595.393 447.982,602.393 448.5,609.5C 446.766,607.678 445.766,605.345 445.5,602.5C 437.26,601.384 428.927,599.384 420.5,596.5C 419.833,596.833 419.167,597.167 418.5,597.5C 405.417,592.649 392.417,587.649 379.5,582.5C 377.678,580.99 375.678,579.657 373.5,578.5C 372.914,578.709 372.414,579.043 372,579.5C 370.635,577.14 368.635,575.473 366,574.5C 348.83,565.263 332.996,553.596 318.5,539.5C 317.015,537.148 315.682,534.814 314.5,532.5C 313.448,532.649 312.448,532.483 311.5,532C 286.28,503.979 268.447,470.812 258,432.5C 256.642,418.742 254.809,405.576 252.5,393C 253.46,389.27 253.793,385.437 253.5,381.5C 261.828,377.006 270.494,373.006 279.5,369.5 Z"/></g>
<g><path style="opacity:1" fill="#697171" d="M 201.5,374.5 C 203.898,374.259 205.898,374.926 207.5,376.5C 205.214,376.405 203.214,375.738 201.5,374.5 Z"/></g>
<g><path style="opacity:0.133" fill="#628364" d="M 205.5,378.5 C 206.833,379.167 206.833,379.167 205.5,378.5 Z"/></g>
<g><path style="opacity:1" fill="#00a09e" d="M 208.5,376.5 C 221.269,378.824 234.102,380.824 247,382.5C 249.216,382.347 251.383,382.014 253.5,381.5C 253.793,385.437 253.46,389.27 252.5,393C 254.809,405.576 256.642,418.742 258,432.5C 268.447,470.812 286.28,503.979 311.5,532C 312.448,532.483 313.448,532.649 314.5,532.5C 315.682,534.814 317.015,537.148 318.5,539.5C 332.996,553.596 348.83,565.263 366,574.5C 368.635,575.473 370.635,577.14 372,579.5C 372.414,579.043 372.914,578.709 373.5,578.5C 375.678,579.657 377.678,580.99 379.5,582.5C 392.417,587.649 405.417,592.649 418.5,597.5C 419.167,597.167 419.833,596.833 420.5,596.5C 428.927,599.384 437.26,601.384 445.5,602.5C 445.766,605.345 446.766,607.678 448.5,609.5C 451.235,620.299 453.568,631.299 455.5,642.5C 455.82,645.898 455.487,649.232 454.5,652.5C 449.434,652.139 444.268,651.473 439,650.5C 436.77,651.489 434.936,650.822 433.5,648.5C 432.389,649.611 431.055,650.278 429.5,650.5C 423.123,648.934 416.623,646.934 410,644.5C 407.667,644.5 405.333,644.5 403,644.5C 401.686,643.687 400.519,642.687 399.5,641.5C 398.833,642.167 398.167,642.833 397.5,643.5C 396.667,642.5 395.833,641.5 395,640.5C 394.667,640.833 394.333,641.167 394,641.5C 390.62,639.446 387.12,637.612 383.5,636C 380.766,635.79 378.266,634.956 376,633.5C 375,633.833 374,634.167 373,634.5C 370.958,632.396 368.458,631.229 365.5,631C 363.576,629.095 361.243,627.928 358.5,627.5C 357.614,626.675 357.281,625.675 357.5,624.5C 355.418,624.528 353.584,623.861 352,622.5C 351.586,622.957 351.086,623.291 350.5,623.5C 347.647,621.761 344.814,620.094 342,618.5C 341.667,618.833 341.333,619.167 341,619.5C 340.333,618.167 339.667,616.833 339,615.5C 338.667,615.833 338.333,616.167 338,616.5C 336.934,614.901 335.434,613.901 333.5,613.5C 332.614,612.675 332.281,611.675 332.5,610.5C 328.258,610.295 324.758,608.628 322,605.5C 321.667,605.833 321.333,606.167 321,606.5C 318.333,603.333 315.499,600.333 312.5,597.5C 311.808,598.025 311.308,598.692 311,599.5C 310.781,598.062 310.281,596.729 309.5,595.5C 308.914,595.709 308.414,596.043 308,596.5C 303.57,591.614 298.903,586.947 294,582.5C 293.586,582.957 293.086,583.291 292.5,583.5C 291.524,579.19 288.857,576.524 284.5,575.5C 281.779,572.112 278.779,569.112 275.5,566.5C 274.868,564.263 273.535,562.597 271.5,561.5C 272.609,559.786 271.942,559.119 269.5,559.5C 269.5,558.5 269.5,557.5 269.5,556.5C 268.5,556.5 267.5,556.5 266.5,556.5C 266.863,554.089 265.863,552.589 263.5,552C 263.833,551.667 264.167,551.333 264.5,551C 262.096,550.492 261.429,549.325 262.5,547.5C 260.143,546.597 258.643,544.93 258,542.5C 257.667,542.833 257.333,543.167 257,543.5C 256.506,541.866 256.34,540.199 256.5,538.5C 255.325,538.719 254.325,538.386 253.5,537.5C 251.563,534.261 249.729,530.927 248,527.5C 247.667,527.833 247.333,528.167 247,528.5C 245.212,522.925 242.379,517.925 238.5,513.5C 238.709,512.914 239.043,512.414 239.5,512C 234.242,504.233 230.242,496.233 227.5,488C 226.613,484.226 224.946,480.893 222.5,478C 222.227,475.849 221.561,473.849 220.5,472C 220.833,471.667 221.167,471.333 221.5,471C 218.593,463.762 215.926,456.762 213.5,450C 214.097,448.938 214.43,447.772 214.5,446.5C 213.06,442.015 211.727,437.515 210.5,433C 210.833,431.333 211.167,429.667 211.5,428C 209.342,426.688 209.009,425.022 210.5,423C 208.676,418.568 208.009,414.068 208.5,409.5C 206.467,407.548 206.134,405.382 207.5,403C 206.897,401.175 206.23,399.341 205.5,397.5C 204.824,398.602 204.158,399.602 203.5,400.5C 204.403,392.317 206.07,384.317 208.5,376.5 Z"/></g>
<g><path style="opacity:1" fill="#7b7c7a" d="M 144.5,377.5 C 144.102,381.761 143.102,385.761 141.5,389.5C 141.584,385.163 142.584,381.163 144.5,377.5 Z"/></g>
<g><path style="opacity:1" fill="#049d9b" d="M 746.5,384.5 C 748.129,389.688 749.129,395.022 749.5,400.5C 749.481,402.06 749.148,403.56 748.5,405C 750.118,412.443 751.452,419.943 752.5,427.5C 753.5,450.157 753.833,472.824 753.5,495.5C 749.579,527.259 740.246,557.259 725.5,585.5C 725.624,586.107 725.957,586.44 726.5,586.5C 686.167,627.5 645.5,668.167 604.5,708.5C 604.44,707.957 604.107,707.624 603.5,707.5C 589.277,715.445 574.277,721.445 558.5,725.5C 557.554,698.088 555.554,670.755 552.5,643.5C 553.29,644.609 553.79,645.942 554,647.5C 554.333,645.5 554.667,643.5 555,641.5C 557.133,640.745 558.8,639.412 560,637.5C 560.725,638.059 561.558,638.392 562.5,638.5C 564.666,638.57 564.999,637.904 563.5,636.5C 566.161,635.501 568.828,634.501 571.5,633.5C 572.086,633.709 572.586,634.043 573,634.5C 584.511,628.757 596.344,622.923 608.5,617C 611.863,614.673 615.03,612.173 618,609.5C 619.299,609.966 620.799,609.966 622.5,609.5C 622.281,608.325 622.614,607.325 623.5,606.5C 626.745,604.691 629.578,602.358 632,599.5C 632.718,600.451 633.551,600.617 634.5,600C 637.175,596.158 640.509,592.992 644.5,590.5C 645.192,591.025 645.692,591.692 646,592.5C 647.577,589.249 649.577,586.249 652,583.5C 652.333,583.833 652.667,584.167 653,584.5C 655.378,581.826 657.712,579.159 660,576.5C 660.333,576.833 660.667,577.167 661,577.5C 666.315,570.487 672.149,563.82 678.5,557.5C 679.233,553.622 681.566,551.289 685.5,550.5C 685.291,549.914 684.957,549.414 684.5,549C 685.793,548.51 687.127,548.343 688.5,548.5C 688.649,547.448 688.483,546.448 688,545.5C 687.346,546.696 686.846,546.696 686.5,545.5C 689.546,542.615 692.046,539.282 694,535.5C 695.666,536.34 695.833,535.84 694.5,534C 699.814,529.467 703.147,524.133 704.5,518C 706.259,516.992 707.426,515.492 708,513.5C 708.654,514.696 709.154,514.696 709.5,513.5C 709.069,512.707 708.735,511.873 708.5,511C 711.783,505.13 715.283,499.297 719,493.5C 719.413,490.768 720.08,488.101 721,485.5C 723.244,481.31 725.411,476.976 727.5,472.5C 727.291,471.914 726.957,471.414 726.5,471C 727.831,469.341 729.165,467.674 730.5,466C 729.679,462.807 730.679,460.14 733.5,458C 731.78,454.914 732.447,452.581 735.5,451C 735.384,449.732 735.051,448.398 734.5,447C 734.996,445.004 735.996,443.337 737.5,442C 737.633,439.401 737.633,436.734 737.5,434C 738,433.5 738.5,433 739,432.5C 740.221,426.95 741.388,421.616 742.5,416.5C 742.291,415.006 741.624,413.839 740.5,413C 742.115,409.923 743.115,406.59 743.5,403C 742.892,401.769 742.559,400.436 742.5,399C 743.221,395.876 743.888,393.043 744.5,390.5C 743.421,386.206 742.921,381.872 743,377.5C 743.522,380.281 744.689,382.615 746.5,384.5 Z"/></g>
<g><path style="opacity:1" fill="#797979" d="M 804.5,379.5 C 805.924,381.515 806.59,383.848 806.5,386.5C 805.076,384.485 804.41,382.152 804.5,379.5 Z"/></g>
<g><path style="opacity:1" fill="#059d9b" d="M 455.5,642.5 C 463.45,674.243 471.783,705.909 480.5,737.5C 430.418,738.495 383.751,726.828 340.5,702.5C 339.893,702.624 339.56,702.957 339.5,703.5C 303.167,667.833 267.167,631.833 231.5,595.5C 232.043,595.44 232.376,595.107 232.5,594.5C 204.699,544.53 193.032,491.03 197.5,434C 198.257,431.056 198.923,428.056 199.5,425C 199.268,416.927 200.602,408.76 203.5,400.5C 204.158,399.602 204.824,398.602 205.5,397.5C 206.23,399.341 206.897,401.175 207.5,403C 206.134,405.382 206.467,407.548 208.5,409.5C 208.009,414.068 208.676,418.568 210.5,423C 209.009,425.022 209.342,426.688 211.5,428C 211.167,429.667 210.833,431.333 210.5,433C 211.727,437.515 213.06,442.015 214.5,446.5C 214.43,447.772 214.097,448.938 213.5,450C 215.926,456.762 218.593,463.762 221.5,471C 221.167,471.333 220.833,471.667 220.5,472C 221.561,473.849 222.227,475.849 222.5,478C 224.946,480.893 226.613,484.226 227.5,488C 230.242,496.233 234.242,504.233 239.5,512C 239.043,512.414 238.709,512.914 238.5,513.5C 242.379,517.925 245.212,522.925 247,528.5C 247.333,528.167 247.667,527.833 248,527.5C 249.729,530.927 251.563,534.261 253.5,537.5C 254.325,538.386 255.325,538.719 256.5,538.5C 256.34,540.199 256.506,541.866 257,543.5C 257.333,543.167 257.667,542.833 258,542.5C 258.643,544.93 260.143,546.597 262.5,547.5C 261.429,549.325 262.096,550.492 264.5,551C 264.167,551.333 263.833,551.667 263.5,552C 265.863,552.589 266.863,554.089 266.5,556.5C 267.5,556.5 268.5,556.5 269.5,556.5C 269.5,557.5 269.5,558.5 269.5,559.5C 271.942,559.119 272.609,559.786 271.5,561.5C 273.535,562.597 274.868,564.263 275.5,566.5C 278.779,569.112 281.779,572.112 284.5,575.5C 288.857,576.524 291.524,579.19 292.5,583.5C 293.086,583.291 293.586,582.957 294,582.5C 298.903,586.947 303.57,591.614 308,596.5C 308.414,596.043 308.914,595.709 309.5,595.5C 310.281,596.729 310.781,598.062 311,599.5C 311.308,598.692 311.808,598.025 312.5,597.5C 315.499,600.333 318.333,603.333 321,606.5C 321.333,606.167 321.667,605.833 322,605.5C 324.758,608.628 328.258,610.295 332.5,610.5C 332.281,611.675 332.614,612.675 333.5,613.5C 335.434,613.901 336.934,614.901 338,616.5C 338.333,616.167 338.667,615.833 339,615.5C 339.667,616.833 340.333,618.167 341,619.5C 341.333,619.167 341.667,618.833 342,618.5C 344.814,620.094 347.647,621.761 350.5,623.5C 351.086,623.291 351.586,622.957 352,622.5C 353.584,623.861 355.418,624.528 357.5,624.5C 357.281,625.675 357.614,626.675 358.5,627.5C 361.243,627.928 363.576,629.095 365.5,631C 368.458,631.229 370.958,632.396 373,634.5C 374,634.167 375,633.833 376,633.5C 378.266,634.956 380.766,635.79 383.5,636C 387.12,637.612 390.62,639.446 394,641.5C 394.333,641.167 394.667,640.833 395,640.5C 395.833,641.5 396.667,642.5 397.5,643.5C 398.167,642.833 398.833,642.167 399.5,641.5C 400.519,642.687 401.686,643.687 403,644.5C 405.333,644.5 407.667,644.5 410,644.5C 416.623,646.934 423.123,648.934 429.5,650.5C 431.055,650.278 432.389,649.611 433.5,648.5C 434.936,650.822 436.77,651.489 439,650.5C 444.268,651.473 449.434,652.139 454.5,652.5C 455.487,649.232 455.82,645.898 455.5,642.5 Z"/></g>
<g><path style="opacity:1" fill="#02bebc" d="M 505.5,513.5 C 502.11,508.767 499.11,503.767 496.5,498.5C 497.404,497.791 497.737,496.791 497.5,495.5C 541.841,486.817 571.175,461.15 585.5,418.5C 585.457,417.584 585.124,416.917 584.5,416.5C 592.52,408.811 599.853,400.477 606.5,391.5C 607.583,391.461 608.583,391.127 609.5,390.5C 609.813,410.184 605.313,429.184 596,447.5C 577.193,477.295 551.36,498.795 518.5,512C 514.32,514.273 509.986,514.773 505.5,513.5 Z"/></g>
<g><path style="opacity:1" fill="#757575" d="M 136.5,417.5 C 136.577,421.215 136.244,424.881 135.5,428.5C 134.876,428.083 134.543,427.416 134.5,426.5C 134.991,423.326 135.657,420.326 136.5,417.5 Z"/></g>
<g><path style="opacity:1" fill="#02c4c2" d="M 584.5,416.5 C 585.124,416.917 585.457,417.584 585.5,418.5C 571.175,461.15 541.841,486.817 497.5,495.5C 497.737,496.791 497.404,497.791 496.5,498.5C 492.011,491.528 487.511,484.528 483,477.5C 481.591,476.219 480.091,475.219 478.5,474.5C 503.694,471.484 525.194,461.15 543,443.5C 543.725,441.843 543.225,440.843 541.5,440.5C 557.155,434.84 571.489,426.84 584.5,416.5 Z"/></g>
<g><path style="opacity:1" fill="#747673" d="M 812.5,420.5 C 813.803,423.355 813.803,426.355 812.5,429.5C 811.081,428.995 810.415,427.995 810.5,426.5C 811.117,426.611 811.617,426.944 812,427.5C 812.497,425.19 812.663,422.857 812.5,420.5 Z"/></g>
<g><path style="opacity:1" fill="#62b9b7" d="M 749.5,400.5 C 751.337,404.533 752.504,408.867 753,413.5C 757.342,440.969 757.508,468.302 753.5,495.5C 753.833,472.824 753.5,450.157 752.5,427.5C 751.452,419.943 750.118,412.443 748.5,405C 749.148,403.56 749.481,402.06 749.5,400.5 Z"/></g>
<g><path style="opacity:1" fill="#020202" d="M 478.5,474.5 C 480.091,475.219 481.591,476.219 483,477.5C 487.511,484.528 492.011,491.528 496.5,498.5C 499.11,503.767 502.11,508.767 505.5,513.5C 508.015,518.543 511.015,523.21 514.5,527.5C 518.253,534.01 522.253,540.344 526.5,546.5C 529.493,552.465 532.493,558.465 535.5,564.5C 539.431,574.962 542.765,585.629 545.5,596.5C 548.632,612.033 550.965,627.7 552.5,643.5C 555.554,670.755 557.554,698.088 558.5,725.5C 558.026,749.479 554.692,773.812 548.5,798.5C 547.215,801.589 546.549,804.922 546.5,808.5C 546.599,811.237 546.265,813.904 545.5,816.5C 543.777,818.78 543.111,821.447 543.5,824.5C 543.5,824.833 543.5,825.167 543.5,825.5C 541.837,827.438 541.171,829.772 541.5,832.5C 540.283,841.124 538.283,849.457 535.5,857.5C 534.599,858.29 533.932,859.29 533.5,860.5C 531.883,861.972 529.883,862.639 527.5,862.5C 524.692,862.922 522.692,861.922 521.5,859.5C 521.598,857.447 520.931,855.78 519.5,854.5C 511.196,833.592 503.863,812.259 497.5,790.5C 497.741,788.102 497.074,786.102 495.5,784.5C 492.568,777.466 490.235,770.133 488.5,762.5C 488.472,759.084 487.472,756.084 485.5,753.5C 484.13,750.381 483.13,747.048 482.5,743.5C 482.946,740.99 482.28,738.99 480.5,737.5C 471.783,705.909 463.45,674.243 455.5,642.5C 453.568,631.299 451.235,620.299 448.5,609.5C 447.982,602.393 446.815,595.393 445,588.5C 444.5,581.842 444.334,575.175 444.5,568.5C 445.507,562.487 446.507,556.487 447.5,550.5C 451.565,539.915 454.565,528.915 456.5,517.5C 457.928,514.697 458.595,511.697 458.5,508.5C 461.282,503.237 463.282,497.57 464.5,491.5C 466.227,485.623 468.894,480.289 472.5,475.5C 474.435,474.85 476.435,474.517 478.5,474.5 Z"/></g>
<g><path style="opacity:1" fill="#050505" d="M 136.5,500.5 C 168.5,531.833 200.167,563.5 231.5,595.5C 267.167,631.833 303.167,667.833 339.5,703.5C 372.5,735.833 405.167,768.5 437.5,801.5C 437.179,803.048 436.179,803.715 434.5,803.5C 418.049,802.275 402.049,799.275 386.5,794.5C 384.485,793.076 382.152,792.41 379.5,792.5C 373.647,791.437 367.98,789.771 362.5,787.5C 361.365,785.787 359.698,785.12 357.5,785.5C 337.423,778.595 318.423,769.595 300.5,758.5C 300.027,757.094 299.027,756.427 297.5,756.5C 293.561,754.554 289.894,752.221 286.5,749.5C 286.027,748.094 285.027,747.427 283.5,747.5C 283.027,746.094 282.027,745.427 280.5,745.5C 280.027,744.094 279.027,743.427 277.5,743.5C 212.729,697.329 169.063,635.995 146.5,559.5C 146.59,556.848 145.924,554.515 144.5,552.5C 139.725,536.951 136.725,520.951 135.5,504.5C 135.232,502.901 135.566,501.568 136.5,500.5 Z"/></g>
<g><path style="opacity:1" fill="#050505" d="M 811.5,501.5 C 812.473,503.948 812.806,506.615 812.5,509.5C 811.605,519.638 809.939,529.638 807.5,539.5C 805.837,541.438 805.171,543.772 805.5,546.5C 805.435,549.428 804.768,552.095 803.5,554.5C 802.076,556.515 801.41,558.848 801.5,561.5C 801.737,562.791 801.404,563.791 800.5,564.5C 799.076,566.515 798.41,568.848 798.5,571.5C 781.943,623.328 754.276,667.994 715.5,705.5C 714.167,706.167 713.167,707.167 712.5,708.5C 709.167,712.5 705.5,716.167 701.5,719.5C 699.973,719.427 698.973,720.094 698.5,721.5C 658.804,756.941 612.971,781.608 561,795.5C 562.991,778.874 564.991,762.207 567,745.5C 579.368,732.965 591.868,720.631 604.5,708.5C 645.5,668.167 686.167,627.5 726.5,586.5C 754.5,557.833 782.833,529.5 811.5,501.5 Z"/></g>
<g><path style="opacity:1" fill="#c1c1c1" d="M 136.5,500.5 C 135.566,501.568 135.232,502.901 135.5,504.5C 134.212,502.965 134.212,501.299 135.5,499.5C 136.107,499.624 136.44,499.957 136.5,500.5 Z"/></g>
<g><path style="opacity:1" fill="#9c9f9b" d="M 811.5,501.5 C 811.56,500.957 811.893,500.624 812.5,500.5C 813.803,503.645 813.803,506.645 812.5,509.5C 812.806,506.615 812.473,503.948 811.5,501.5 Z"/></g>
<g><path style="opacity:1" fill="#7a7a7a" d="M 807.5,539.5 C 807.279,542.067 806.612,544.401 805.5,546.5C 805.171,543.772 805.837,541.438 807.5,539.5 Z"/></g>
<g><path style="opacity:0.933" fill="#a3a3a3" d="M 144.5,552.5 C 145.924,554.515 146.59,556.848 146.5,559.5C 145.076,557.485 144.41,555.152 144.5,552.5 Z"/></g>
<g><path style="opacity:0.4" fill="#9a9d99" d="M 803.5,554.5 C 803.59,557.152 802.924,559.485 801.5,561.5C 801.41,558.848 802.076,556.515 803.5,554.5 Z"/></g>
<g><path style="opacity:0.533" fill="#979a96" d="M 800.5,564.5 C 800.59,567.152 799.924,569.485 798.5,571.5C 798.41,568.848 799.076,566.515 800.5,564.5 Z"/></g>
<g><path style="opacity:0.4" fill="#747e72" d="M 715.5,705.5 C 715.5,707.5 714.5,708.5 712.5,708.5C 713.167,707.167 714.167,706.167 715.5,705.5 Z"/></g>
<g><path style="opacity:0.267" fill="#80877f" d="M 701.5,719.5 C 701.027,720.906 700.027,721.573 698.5,721.5C 698.973,720.094 699.973,719.427 701.5,719.5 Z"/></g>
<g><path style="opacity:1" fill="#707270" d="M 480.5,737.5 C 482.28,738.99 482.946,740.99 482.5,743.5C 481.262,741.786 480.595,739.786 480.5,737.5 Z"/></g>
<g><path style="opacity:1" fill="#838383" d="M 277.5,743.5 C 279.027,743.427 280.027,744.094 280.5,745.5C 278.973,745.573 277.973,744.906 277.5,743.5 Z"/></g>
<g><path style="opacity:1" fill="#797979" d="M 280.5,745.5 C 282.027,745.427 283.027,746.094 283.5,747.5C 281.973,747.573 280.973,746.906 280.5,745.5 Z"/></g>
<g><path style="opacity:1" fill="#717171" d="M 283.5,747.5 C 285.027,747.427 286.027,748.094 286.5,749.5C 284.973,749.573 283.973,748.906 283.5,747.5 Z"/></g>
<g><path style="opacity:1" fill="#767976" d="M 485.5,753.5 C 487.472,756.084 488.472,759.084 488.5,762.5C 486.928,759.785 485.928,756.785 485.5,753.5 Z"/></g>
<g><path style="opacity:1" fill="#818380" d="M 297.5,756.5 C 299.027,756.427 300.027,757.094 300.5,758.5C 298.973,758.573 297.973,757.906 297.5,756.5 Z"/></g>
<g><path style="opacity:1" fill="#757575" d="M 357.5,785.5 C 359.698,785.12 361.365,785.787 362.5,787.5C 360.597,787.204 358.93,786.537 357.5,785.5 Z"/></g>
<g><path style="opacity:1" fill="#737373" d="M 495.5,784.5 C 497.074,786.102 497.741,788.102 497.5,790.5C 496.262,788.786 495.595,786.786 495.5,784.5 Z"/></g>
<g><path style="opacity:1" fill="#727272" d="M 379.5,792.5 C 382.152,792.41 384.485,793.076 386.5,794.5C 383.848,794.59 381.515,793.924 379.5,792.5 Z"/></g>
<g><path style="opacity:1" fill="#878787" d="M 721.5,797.5 C 720.167,797.5 718.833,797.5 717.5,797.5C 718.634,795.219 719.968,795.219 721.5,797.5 Z"/></g>
<g><path style="opacity:1" fill="#1f1f1f" d="M 717.5,797.5 C 718.833,797.5 720.167,797.5 721.5,797.5C 724.884,800.105 726.551,803.605 726.5,808C 724.458,819.217 718.125,827.051 707.5,831.5C 706.026,830.564 705.026,829.23 704.5,827.5C 706.817,824.683 709.317,822.016 712,819.5C 714.006,816.464 714.84,813.131 714.5,809.5C 711.767,809.804 710.101,808.637 709.5,806C 711.941,802.948 714.607,800.115 717.5,797.5 Z"/></g>
<g><path style="opacity:1" fill="#888888" d="M 735.5,797.5 C 746.833,797.5 758.167,797.5 769.5,797.5C 769.5,797.833 769.5,798.167 769.5,798.5C 767.5,798.5 765.5,798.5 763.5,798.5C 763.598,800.553 762.931,802.22 761.5,803.5C 761.672,802.508 761.338,801.842 760.5,801.5C 760.804,800.85 761.137,800.183 761.5,799.5C 752.676,798.833 744.009,798.167 735.5,797.5 Z"/></g>
<g><path style="opacity:1" fill="#c8c8c8" d="M 769.5,798.5 C 769.5,798.167 769.5,797.833 769.5,797.5C 786.18,797.167 802.847,797.501 819.5,798.5C 819.376,799.107 819.043,799.44 818.5,799.5C 802.342,798.504 786.009,798.17 769.5,798.5 Z"/></g>
<g><path style="opacity:1" fill="#242424" d="M 621.5,802.5 C 622.906,802.027 623.573,801.027 623.5,799.5C 627.095,796.829 630.262,797.496 633,801.5C 633.562,805.975 632.062,809.642 628.5,812.5C 623.693,813.89 620.693,812.056 619.5,807C 619.525,805.124 620.191,803.624 621.5,802.5 Z"/></g>
<g><path style="opacity:1" fill="#151515" d="M 735.5,797.5 C 744.009,798.167 752.676,798.833 761.5,799.5C 761.137,800.183 760.804,800.85 760.5,801.5C 756.603,801.498 753.77,803.165 752,806.5C 746.723,821.278 742.223,836.278 738.5,851.5C 737.053,852.134 736.387,853.301 736.5,855C 736.528,856.07 736.861,856.903 737.5,857.5C 740.741,857.878 743.741,858.878 746.5,860.5C 745.885,862.384 744.552,863.384 742.5,863.5C 735.196,862.607 727.863,862.274 720.5,862.5C 717.302,863.036 714.635,862.369 712.5,860.5C 715.247,858.921 718.247,857.588 721.5,856.5C 724.531,847.735 727.531,839.069 730.5,830.5C 731.924,828.485 732.59,826.152 732.5,823.5C 732.366,821.708 732.699,820.042 733.5,818.5C 735.074,816.898 735.741,814.898 735.5,812.5C 735.62,809.52 736.287,806.687 737.5,804C 735.291,802.856 732.957,802.023 730.5,801.5C 729.89,800.609 729.557,799.609 729.5,798.5C 731.265,797.539 733.265,797.205 735.5,797.5 Z"/></g>
<g><path style="opacity:1" fill="#161716" d="M 769.5,798.5 C 786.009,798.17 802.342,798.504 818.5,799.5C 817.812,803.584 816.812,807.584 815.5,811.5C 814.069,812.78 813.402,814.447 813.5,816.5C 812.167,816.5 810.833,816.5 809.5,816.5C 809.802,813.941 809.468,811.607 808.5,809.5C 808.714,807.856 808.38,806.356 807.5,805C 804.242,804.788 801.076,804.288 798,803.5C 791.73,821.148 786.563,839.148 782.5,857.5C 786.102,857.75 789.435,858.75 792.5,860.5C 792.376,861.107 792.043,861.44 791.5,861.5C 788.946,862.388 786.279,862.721 783.5,862.5C 776.167,862.5 768.833,862.5 761.5,862.5C 759.585,862.784 757.919,862.451 756.5,861.5C 756.369,860.624 756.702,859.957 757.5,859.5C 760.637,858.874 763.637,857.874 766.5,856.5C 768.027,852.011 769.694,847.678 771.5,843.5C 772.924,841.485 773.59,839.152 773.5,836.5C 774.594,830.561 776.261,824.894 778.5,819.5C 779.924,817.485 780.59,815.152 780.5,812.5C 781.184,809.454 781.684,806.454 782,803.5C 778.255,804.297 774.421,804.797 770.5,805C 767.528,808.445 765.194,812.278 763.5,816.5C 761.585,816.784 759.919,816.451 758.5,815.5C 759.503,811.479 760.503,807.479 761.5,803.5C 762.931,802.22 763.598,800.553 763.5,798.5C 765.5,798.5 767.5,798.5 769.5,798.5 Z"/></g>
<g><path style="opacity:1" fill="#777777" d="M 729.5,798.5 C 729.557,799.609 729.89,800.609 730.5,801.5C 728.448,800.947 728.115,799.947 729.5,798.5 Z"/></g>
<g><path style="opacity:1" fill="#7f7f7f" d="M 623.5,799.5 C 623.573,801.027 622.906,802.027 621.5,802.5C 621.427,800.973 622.094,799.973 623.5,799.5 Z"/></g>
<g><path style="opacity:1" fill="#919191" d="M 548.5,798.5 C 548.678,802.122 548.011,805.456 546.5,808.5C 546.549,804.922 547.215,801.589 548.5,798.5 Z"/></g>
<g><path style="opacity:1" fill="#b3b3b3" d="M 437.5,801.5 C 438.478,801.811 439.145,802.478 439.5,803.5C 437.701,804.788 436.035,804.788 434.5,803.5C 436.179,803.715 437.179,803.048 437.5,801.5 Z"/></g>
<g><path style="opacity:1" fill="#191919" d="M 693.5,806.5 C 694.5,806.5 695.5,806.5 696.5,806.5C 696.5,807.5 696.5,808.5 696.5,809.5C 696.072,812.785 695.072,815.785 693.5,818.5C 692.957,818.56 692.624,818.893 692.5,819.5C 695.98,820.806 699.313,820.806 702.5,819.5C 703.376,819.369 704.043,819.702 704.5,820.5C 703.833,821.833 703.167,823.167 702.5,824.5C 698.893,825.489 695.226,825.823 691.5,825.5C 689.172,834.154 686.838,842.82 684.5,851.5C 684.808,852.308 685.308,852.975 686,853.5C 688.628,851.874 690.961,849.874 693,847.5C 694.678,848.466 695.345,849.799 695,851.5C 689.678,857.824 683.012,861.824 675,863.5C 673.564,863.441 672.231,863.108 671,862.5C 670.457,859.132 670.624,855.799 671.5,852.5C 671.833,852.5 672.167,852.5 672.5,852.5C 674.04,850.162 674.706,847.495 674.5,844.5C 675.704,838.681 677.371,833.014 679.5,827.5C 680.404,826.791 680.737,825.791 680.5,824.5C 678.219,824.923 676.552,824.256 675.5,822.5C 683.064,818.937 689.064,813.604 693.5,806.5 Z"/></g>
<g><path style="opacity:1" fill="#999d98" d="M 693.5,806.5 C 695.185,805.156 696.852,805.323 698.5,807C 697.934,807.995 697.267,808.828 696.5,809.5C 696.5,808.5 696.5,807.5 696.5,806.5C 695.5,806.5 694.5,806.5 693.5,806.5 Z"/></g>
<g><path style="opacity:1" fill="#757575" d="M 735.5,812.5 C 735.741,814.898 735.074,816.898 733.5,818.5C 733.595,816.214 734.262,814.214 735.5,812.5 Z"/></g>
<g><path style="opacity:1" fill="#7e7e7e" d="M 780.5,812.5 C 780.59,815.152 779.924,817.485 778.5,819.5C 778.41,816.848 779.076,814.515 780.5,812.5 Z"/></g>
<g><path style="opacity:1" fill="#787878" d="M 758.5,815.5 C 759.919,816.451 761.585,816.784 763.5,816.5C 761.636,817.793 759.636,817.793 757.5,816.5C 757.624,815.893 757.957,815.56 758.5,815.5 Z"/></g>
<g><path style="opacity:1" fill="#888988" d="M 808.5,809.5 C 809.468,811.607 809.802,813.941 809.5,816.5C 810.833,816.5 812.167,816.5 813.5,816.5C 813.402,814.447 814.069,812.78 815.5,811.5C 815.167,813.5 814.833,815.5 814.5,817.5C 812.5,817.5 810.5,817.5 808.5,817.5C 808.5,814.833 808.5,812.167 808.5,809.5 Z"/></g>
<g><path style="opacity:1" fill="#848483" d="M 545.5,816.5 C 545.198,819.373 544.531,822.039 543.5,824.5C 543.111,821.447 543.777,818.78 545.5,816.5 Z"/></g>
<g><path style="opacity:1" fill="#181818" d="M 597.5,844.5 C 595.416,846.993 595.083,849.66 596.5,852.5C 598.392,851.298 600.226,849.965 602,848.5C 603.678,849.466 604.345,850.799 604,852.5C 599.726,856.774 594.893,860.274 589.5,863C 582.659,863.808 580.992,861.308 584.5,855.5C 585.905,853.775 586.405,851.775 586,849.5C 584.961,850.244 584.461,851.244 584.5,852.5C 580.934,857.907 576.101,861.574 570,863.5C 564.376,863.209 561.376,860.209 561,854.5C 560.759,841.054 566.259,830.554 577.5,823C 586.937,817.928 596.604,817.262 606.5,821C 602.983,828.731 599.983,836.565 597.5,844.5 Z"/></g>
<g><path style="opacity:1" fill="#1e1e1e" d="M 622.5,818.5 C 625.55,817.923 627.55,819.09 628.5,822C 624.304,832.25 621.137,842.75 619,853.5C 620.667,851.833 622.333,850.167 624,848.5C 625.022,849.354 625.855,850.354 626.5,851.5C 620.82,858.671 613.487,862.671 604.5,863.5C 606.371,853.05 609.371,842.883 613.5,833C 613.167,832.5 612.833,832 612.5,831.5C 609.995,835.29 607.662,835.29 605.5,831.5C 610.925,826.728 616.591,822.395 622.5,818.5 Z"/></g>
<g><path style="opacity:1" fill="#1a1a1a" d="M 646.5,830.5 C 645.095,832.64 644.262,834.974 644,837.5C 645.669,836.154 646.836,834.487 647.5,832.5C 651.278,827.383 655.945,823.383 661.5,820.5C 664.167,820.167 666.833,819.833 669.5,819.5C 671.246,820.249 672.246,821.583 672.5,823.5C 669.901,832.962 666.901,842.296 663.5,851.5C 664.002,852.521 664.668,852.688 665.5,852C 666.667,850.833 667.833,849.667 669,848.5C 670.481,849.471 671.315,850.804 671.5,852.5C 666.933,856.559 661.933,860.059 656.5,863C 654.288,863.789 652.288,863.622 650.5,862.5C 650.704,859.482 651.037,856.482 651.5,853.5C 653.819,846.188 656.152,838.854 658.5,831.5C 657.635,830.417 656.635,830.251 655.5,831C 646.574,839.027 640.907,848.861 638.5,860.5C 634.863,861.165 631.197,861.832 627.5,862.5C 626.702,862.043 626.369,861.376 626.5,860.5C 629.197,850.91 632.197,841.41 635.5,832C 633.24,831.956 631.24,832.789 629.5,834.5C 628.112,833.409 627.612,832.076 628,830.5C 632.976,824.695 639.143,820.695 646.5,818.5C 648.167,818.833 649.167,819.833 649.5,821.5C 648.649,824.578 647.649,827.578 646.5,830.5 Z"/></g>
<g><path style="opacity:1" fill="#797979" d="M 669.5,819.5 C 666.833,819.833 664.167,820.167 661.5,820.5C 664.04,818.587 666.707,818.254 669.5,819.5 Z"/></g>
<g><path style="opacity:1" fill="#9e9e9e" d="M 693.5,818.5 C 696.287,819.477 699.287,819.81 702.5,819.5C 699.313,820.806 695.98,820.806 692.5,819.5C 692.624,818.893 692.957,818.56 693.5,818.5 Z"/></g>
<g><path style="opacity:1" fill="#f6f6f6" d="M 585.5,823.5 C 588.38,823.033 590.713,823.866 592.5,826C 590.368,835.084 586.701,843.417 581.5,851C 576.353,855.134 573.353,853.967 572.5,847.5C 573.204,837.419 577.537,829.419 585.5,823.5 Z"/></g>
<g><path style="opacity:1" fill="#a0a0a0" d="M 675.5,822.5 C 676.552,824.256 678.219,824.923 680.5,824.5C 680.737,825.791 680.404,826.791 679.5,827.5C 678.448,825.744 676.781,825.077 674.5,825.5C 674.263,824.209 674.596,823.209 675.5,822.5 Z"/></g>
<g><path style="opacity:1" fill="#606060" d="M 732.5,823.5 C 732.59,826.152 731.924,828.485 730.5,830.5C 730.41,827.848 731.076,825.515 732.5,823.5 Z"/></g>
<g><path style="opacity:1" fill="#636363" d="M 543.5,825.5 C 543.279,828.067 542.612,830.401 541.5,832.5C 541.171,829.772 541.837,827.438 543.5,825.5 Z"/></g>
<g><path style="opacity:1" fill="#c5c5c5" d="M 646.5,830.5 C 646.328,831.492 646.662,832.158 647.5,832.5C 646.836,834.487 645.669,836.154 644,837.5C 644.262,834.974 645.095,832.64 646.5,830.5 Z"/></g>
<g><path style="opacity:1" fill="#626262" d="M 773.5,836.5 C 773.59,839.152 772.924,841.485 771.5,843.5C 771.41,840.848 772.076,838.515 773.5,836.5 Z"/></g>
<g><path style="opacity:1" fill="#656565" d="M 597.5,844.5 C 596.908,847.127 596.575,849.794 596.5,852.5C 595.083,849.66 595.416,846.993 597.5,844.5 Z"/></g>
<g><path style="opacity:1" fill="#616161" d="M 674.5,844.5 C 674.706,847.495 674.04,850.162 672.5,852.5C 672.565,849.572 673.232,846.905 674.5,844.5 Z"/></g>
<g><path style="opacity:1" fill="#828282" d="M 584.5,855.5 C 584.5,854.5 584.5,853.5 584.5,852.5C 584.461,851.244 584.961,850.244 586,849.5C 586.405,851.775 585.905,853.775 584.5,855.5 Z"/></g>
<g><path style="opacity:1" fill="#808080" d="M 738.5,851.5 C 737.85,853.435 737.517,855.435 737.5,857.5C 736.861,856.903 736.528,856.07 736.5,855C 736.387,853.301 737.053,852.134 738.5,851.5 Z"/></g>
<g><path style="opacity:1" fill="#8d8d8d" d="M 519.5,854.5 C 520.931,855.78 521.598,857.447 521.5,859.5C 520.069,858.22 519.402,856.553 519.5,854.5 Z"/></g>
<g><path style="opacity:0.133" fill="#6d796b" d="M 535.5,857.5 C 535.715,859.179 535.048,860.179 533.5,860.5C 533.932,859.29 534.599,858.29 535.5,857.5 Z"/></g>
<g><path style="opacity:1" fill="#7b7c7b" d="M 651.5,853.5 C 651.037,856.482 650.704,859.482 650.5,862.5C 649.185,859.373 649.518,856.373 651.5,853.5 Z"/></g>
<g><path style="opacity:1" fill="#585858" d="M 626.5,860.5 C 626.369,861.376 626.702,862.043 627.5,862.5C 631.197,861.832 634.863,861.165 638.5,860.5C 634.631,862.439 630.297,863.439 625.5,863.5C 625.263,862.209 625.596,861.209 626.5,860.5 Z"/></g>
<g><path style="opacity:1" fill="#a2a2a2" d="M 712.5,860.5 C 714.635,862.369 717.302,863.036 720.5,862.5C 717.713,863.477 714.713,863.81 711.5,863.5C 711.263,862.209 711.596,861.209 712.5,860.5 Z"/></g>
<g><path style="opacity:1" fill="#a9a9a9" d="M 756.5,861.5 C 757.919,862.451 759.585,862.784 761.5,862.5C 759.636,863.793 757.636,863.793 755.5,862.5C 755.624,861.893 755.957,861.56 756.5,861.5 Z"/></g>
<g><path style="opacity:1" fill="#a2a3a2" d="M 791.5,861.5 C 790.666,862.748 789.333,863.415 787.5,863.5C 785.955,863.489 784.622,863.156 783.5,862.5C 786.279,862.721 788.946,862.388 791.5,861.5 Z"/></g>
</svg>
